<svg data-v-0dd9719b="" version="1.0" xmlns="http://www.w3.org/2000/svg" xmlns:xlink="http://www.w3.org/1999/xlink" width="100%" height="100%" viewBox="0 0 340.000000 250.000000" preserveAspectRatio="xMidYMid meet" color-interpolation-filters="sRGB" style="margin: auto;"> <rect data-v-0dd9719b="" x="0" y="0" width="100%" height="100%" fill="#fff" fill-opacity="1" class="background"></rect> <rect data-v-0dd9719b="" x="0" y="0" width="100%" height="100%" fill="url(#watermark)" fill-opacity="1" class="watermarklayer"></rect> <g data-v-0dd9719b="" fill="#333333" class="icon-text-wrapper icon-svg-group iconsvg" transform="translate(94.44999694824219,96.79390716552734)"><g class="iconsvg-imagesvg" transform="translate(0,0)"><g><rect fill="#333333" fill-opacity="0" stroke-width="2" x="0" y="0" width="60" height="56.4121850319669" class="image-rect"></rect> <svg x="0" y="0" width="60" height="56.4121850319669" filtersec="colorsb5088290124" class="image-svg-svg primary" style="overflow: visible;"><svg xmlns="http://www.w3.org/2000/svg" viewBox="0 0 106.36000061035156 100"><g><g><path fill="#02035e" d="M31.46 8.31L0 0v100l31.46-8.31 11.97-3.17V11.48L31.46 8.31z"></path><path fill="#00b0d8" opacity=".8" d="M62.93 8.31L31.46 0v100l31.47-8.31 11.96-3.17V11.48L62.93 8.31z"></path><path fill="#00b0d8" opacity=".5" d="M62.93 0v100l43.43-11.48V11.48L62.93 0z"></path></g></g></svg></svg> <!----></g></g> <g transform="translate(67,3.911092758178711)"><g data-gra="path-name" fill-rule="" class="tp-name iconsvg-namesvg"><g transform="scale(1)"><g><path d="M21.71-46.34L30.15-46.59Q29.99-44.02 29.88-41.24 29.77-38.47 29.69-35.67 29.61-32.88 29.56-30.18 29.52-27.49 29.48-25.1 29.45-22.72 29.45-20.76 29.45-18.79 29.45-17.42L29.45-17.42Q29.45-15.65 29.45-13.49 29.45-11.33 29.48-9.05 29.52-6.76 29.56-4.46 29.61-2.16 29.71-0.13L29.71-0.13Q28.34-0.19 27.22-0.19 26.09-0.19 25.17-0.19L25.17-0.19Q23.52-0.19 22.44-0.16 21.36-0.13 20.73-0.06L20.73-0.06Q19.96 0 19.55 0.06L19.55 0.06Q19.46-0.6 19.15-2.02 18.85-3.43 18.39-5.36 17.93-7.3 17.33-9.65 16.73-12 16.04-14.54 15.36-17.08 14.63-19.69 13.9-22.31 13.19-24.8 12.47-27.29 11.79-29.53 11.11-31.77 10.54-33.55L10.54-33.55Q10.28-29.48 10.16-26.04 10.03-22.6 9.97-20.03L9.97-20.03Q9.87-17.04 9.87-14.57L9.87-14.57Q9.87-12.44 9.97-10.06L9.97-10.06Q10.03-8.03 10.2-5.43 10.38-2.82 10.73-0.13L10.73-0.13Q8.28-0.22 6.71-0.24 5.14-0.25 4.22-0.25L4.22-0.25 2.67-0.25Q2.82-5.94 2.92-9.9 3.02-13.87 3.06-16.55 3.11-19.23 3.13-20.85 3.14-22.47 3.14-23.47 3.14-24.47 3.13-25.07 3.11-25.68 3.11-26.31L3.11-26.31Q3.11-27.9 3.09-30.09 3.08-32.28 3.02-34.8 2.95-37.32 2.82-40.05 2.7-42.78 2.48-45.45L2.48-45.45Q5.71-45.45 7.81-45.51 9.9-45.58 11.14-45.64L11.14-45.64Q12.6-45.73 13.39-45.83L13.39-45.83Q13.55-44.81 14.04-42.66 14.54-40.5 15.22-37.66 15.9-34.82 16.76-31.52 17.61-28.22 18.52-24.87 19.42-21.52 20.34-18.36 21.26-15.2 22.09-12.66L22.09-12.66Q22.25-15.36 22.33-18.17 22.41-20.98 22.45-23.42 22.5-25.87 22.5-27.69 22.5-29.52 22.5-30.21L22.5-30.21Q22.47-33.1 22.38-35.99L22.38-35.99Q22.34-37.23 22.28-38.56 22.22-39.9 22.14-41.24 22.06-42.59 21.95-43.89 21.84-45.2 21.71-46.34L21.71-46.34ZM57.51 0.73L57.51 0.73Q54.94 0.67 52.73 0.65 50.53 0.63 48.56 0.63L48.56 0.63Q44.72 0.63 42.13 0.71 39.55 0.79 37.93 0.86L37.93 0.86Q36.02 0.95 34.91 1.05L34.91 1.05Q35.13-1.08 35.31-3.24 35.48-5.4 35.61-7.49 35.74-9.58 35.83-11.52 35.93-13.46 35.99-15.17L35.99-15.17Q36.12-19.17 36.15-22.82L36.15-22.82Q36.12-26.63 35.99-30.63L35.99-30.63Q35.93-32.34 35.83-34.23 35.74-36.12 35.61-38.09 35.48-40.05 35.31-42.04 35.13-44.02 34.91-45.89L34.91-45.89Q38.88-45.73 42.01-45.66 45.13-45.58 47.58-45.58L47.58-45.58Q49.99-45.58 51.73-45.62 53.48-45.67 54.59-45.73L54.59-45.73Q55.89-45.8 56.75-45.89L56.75-45.89Q56.75-45.93 56.75-45.32 56.75-44.72 56.78-43.74 56.81-42.75 56.89-41.51 56.97-40.28 57.13-39.01L57.13-39.01Q53.45-39.36 50.69-39.47 47.92-39.58 45.96-39.58L45.96-39.58Q45.13-39.58 44.51-39.58 43.89-39.58 43.35-39.51L43.35-39.51Q43.29-35.99 43.26-32.9 43.23-29.8 43.23-27.04L43.23-27.04Q45.45-27.1 47.19-27.22 48.94-27.33 50.18-27.49L50.18-27.49Q51.61-27.64 52.72-27.83L52.72-27.83Q52.69-27.61 52.69-27.33L52.69-27.33Q52.65-27.07 52.65-26.72 52.65-26.37 52.65-25.93L52.65-25.93Q52.65-24.91 52.72-23.5 52.78-22.09 52.97-20.47L52.97-20.47Q49.54-20.92 47.07-21.03 44.59-21.14 43.23-21.14L43.23-21.14Q43.23-17.84 43.26-15.25 43.29-12.66 43.34-10.7 43.39-8.73 43.43-7.33 43.48-5.94 43.54-5.01L43.54-5.01Q46.78-5.08 49.32-5.33 51.86-5.59 53.61-5.86 55.35-6.13 56.27-6.35 57.19-6.57 57.19-6.63L57.19-6.63Q57.16-6.47 57.16-6.28L57.16-6.28Q57.13-6.13 57.13-5.87 57.13-5.62 57.13-5.27L57.13-5.27Q57.13-4.38 57.19-2.89 57.26-1.4 57.51 0.73ZM86.58-31.33L86.58-31.33Q86.55-27.17 85.01-23.98 83.47-20.79 81.01-18.63 78.55-16.47 75.54-15.36 72.52-14.25 69.54-14.25L69.54-14.25 68.9-14.25Q68.9-12.92 68.92-11.09 68.94-9.27 69-7.13 69.06-4.98 69.17-2.65 69.28-0.32 69.48 2L69.48 2Q67.6 1.81 66.05 1.75 64.49 1.68 63.32 1.68L63.32 1.68Q62.68 1.68 62.21 1.7 61.73 1.71 61.41 1.71L61.41 1.71Q61.03 1.75 60.78 1.75L60.78 1.75Q60.94-0.73 61.06-3.22 61.19-5.71 61.29-8.11 61.38-10.51 61.43-12.73 61.48-14.95 61.54-16.92L61.54-16.92Q61.64-21.49 61.67-25.68L61.67-25.68Q61.67-29.71 61.6-33.39L61.6-33.39Q61.57-34.94 61.54-36.59 61.51-38.24 61.46-39.8 61.41-41.35 61.37-42.7 61.32-44.05 61.22-45.04L61.22-45.04Q63.67-45.48 66-45.59 68.33-45.7 69.86-45.7L69.86-45.7Q71.03-45.7 72.74-45.61 74.46-45.51 76.31-45.08 78.17-44.66 80.01-43.75 81.85-42.85 83.31-41.26 84.77-39.67 85.68-37.24 86.58-34.82 86.58-31.33ZM78.39-31.07L78.39-31.07Q78.39-33.48 77.85-35.21 77.31-36.94 76.22-38.05 75.12-39.17 73.43-39.74 71.73-40.31 69.41-40.43L69.41-40.43Q69.28-37.64 69.21-34.56 69.13-31.48 69.06-28.58 69-25.68 68.97-23.18 68.94-20.69 68.9-19.11L68.9-19.11Q71.28-19.23 73.06-20.15 74.84-21.07 76.03-22.63 77.22-24.18 77.81-26.33 78.39-28.47 78.39-31.07Z" transform="translate(-2.4800000190734863, 46.59000015258789)"></path></g> <!----> <!----> <!----> <!----> <!----> <!----> <!----></g></g> <!----></g></g><defs v-gra="od"></defs></svg>